HIERARCHY
ROOT hip
{
  OFFSET 0 0 0
  CHANNELS 6 Xposition Yposition Zposition Zrotation Yrotation Xrotation
  JOINT abdomen
  {
    OFFSET 0 20.6881 -0.73152
    CHANNELS 3 Zrotation Xrotation Yrotation
    JOINT chest
    {
      OFFSET 0 11.7043 -0.48768
      CHANNELS 3 Zrotation Xrotation Yrotation
      JOINT neck
      {
        OFFSET 0 22.1894 -2.19456
        CHANNELS 3 Zrotation Xrotation Yrotation
        JOINT head
        {
          OFFSET -0.24384 7.07133 1.2192
          CHANNELS 3 Zrotation Xrotation Yrotation
          JOINT leftEye
          {
            OFFSET 4.14528 8.04674 8.04672
            CHANNELS 3 Zrotation Xrotation Yrotation
            End Site
            {
              OFFSET 1 0 0
            }
          }
          JOINT rightEye
          {
            OFFSET -3.6576 8.04674 8.04672
            CHANNELS 3 Zrotation Xrotation Yrotation
            End Site
            {
              OFFSET 1 0 0
            }
          }
        }
      }
      JOINT rCollar
      {
        OFFSET -2.68224 19.2634 -4.8768
        CHANNELS 3 Zrotation Xrotation Yrotation
        JOINT rShldr
        {
          OFFSET -8.77824 -1.95073 1.46304
          CHANNELS 3 Zrotation Xrotation Yrotation
          JOINT rForeArm
          {
            OFFSET -28.1742 -1.7115 0.48768
            CHANNELS 3 Zrotation Xrotation Yrotation
            JOINT rHand
            {
              OFFSET -22.5879 0.773209 7.07136
              CHANNELS 3 Zrotation Xrotation Yrotation
              JOINT rThumb1
              {
                OFFSET -1.2192 -0.487915 3.41376
                CHANNELS 3 Zrotation Xrotation Yrotation
                JOINT rThumb2
                {
                  OFFSET -3.37035 -0.52449 3.41376
                  CHANNELS 3 Zrotation Xrotation Yrotation
                  End Site
                  {
                    OFFSET -1.78271 -1.18214 1.43049
                  }
                }
              }
              JOINT rIndex1
              {
                OFFSET -7.75947 0.938293 5.60832
                CHANNELS 3 Zrotation Xrotation Yrotation
                JOINT rIndex2
                {
                  OFFSET -2.54057 -0.884171 1.56538
                  CHANNELS 3 Zrotation Xrotation Yrotation
                  End Site
                  {
                    OFFSET -1.62519 -0.234802 1.16502
                  }
                }
              }
              JOINT rMid1
              {
                OFFSET -8.24714 1.18213 3.41376
                CHANNELS 3 Zrotation Xrotation Yrotation
                JOINT rMid2
                {
                  OFFSET -3.10165 -0.590103 1.0647
                  CHANNELS 3 Zrotation Xrotation Yrotation
                  End Site
                  {
                    OFFSET -2.48547 -0.328903 0.83742
                  }
                }
              }
              JOINT rRing1
              {
                OFFSET -8.82822 0.546677 1.51678
                CHANNELS 3 Zrotation Xrotation Yrotation
                JOINT rRing2
                {
                  OFFSET -2.60934 -0.819778 -0.0198488
                  CHANNELS 3 Zrotation Xrotation Yrotation
                  End Site
                  {
                    OFFSET -2.33842 -0.294052 0.168128
                  }
                }
              }
              JOINT rPinky1
              {
                OFFSET -8.27202 -0.0477905 -0.4584
                CHANNELS 3 Zrotation Xrotation Yrotation
                JOINT rPinky2
                {
                  OFFSET -1.82734 -0.647385 -0.700984
                  CHANNELS 3 Zrotation Xrotation Yrotation
                  End Site
                  {
                    OFFSET -1.69225 -0.51767 -0.607171
                  }
                }
              }
            }
          }
        }
      }
      JOINT lCollar
      {
        OFFSET 2.68224 19.2634 -4.8768
        CHANNELS 3 Zrotation Xrotation Yrotation
        JOINT lShldr
        {
          OFFSET 8.77824 -1.95073 1.46304
          CHANNELS 3 Zrotation Xrotation Yrotation
          JOINT lForeArm
          {
            OFFSET 28.1742 -1.7115 0.48768
            CHANNELS 3 Zrotation Xrotation Yrotation
            JOINT lHand
            {
              OFFSET 22.5879 0.773209 7.07136
              CHANNELS 3 Zrotation Xrotation Yrotation
              JOINT lThumb1
              {
                OFFSET 1.2192 -0.487915 3.41376
                CHANNELS 3 Zrotation Xrotation Yrotation
                JOINT lThumb2
                {
                  OFFSET 3.37035 -0.52449 3.41376
                  CHANNELS 3 Zrotation Xrotation Yrotation
                  End Site
                  {
                    OFFSET 1.78271 -1.18214 1.43049
                  }
                }
              }
              JOINT lIndex1
              {
                OFFSET 7.75947 0.938293 5.60832
                CHANNELS 3 Zrotation Xrotation Yrotation
                JOINT lIndex2
                {
                  OFFSET 2.54057 -0.884171 1.56538
                  CHANNELS 3 Zrotation Xrotation Yrotation
                  End Site
                  {
                    OFFSET 1.62519 -0.234802 1.16502
                  }
                }
              }
              JOINT lMid1
              {
                OFFSET 8.24714 1.18213 3.41376
                CHANNELS 3 Zrotation Xrotation Yrotation
                JOINT lMid2
                {
                  OFFSET 3.10165 -0.590103 1.0647
                  CHANNELS 3 Zrotation Xrotation Yrotation
                  End Site
                  {
                    OFFSET 2.48547 -0.328903 0.83742
                  }
                }
              }
              JOINT lRing1
              {
                OFFSET 8.82822 0.546677 1.51678
                CHANNELS 3 Zrotation Xrotation Yrotation
                JOINT lRing2
                {
                  OFFSET 2.60934 -0.819778 -0.0198488
                  CHANNELS 3 Zrotation Xrotation Yrotation
                  End Site
                  {
                    OFFSET 2.33842 -0.294052 0.168128
                  }
                }
              }
              JOINT lPinky1
              {
                OFFSET 8.27202 -0.0477905 -0.4584
                CHANNELS 3 Zrotation Xrotation Yrotation
                JOINT lPinky2
                {
                  OFFSET 1.82734 -0.647385 -0.700984
                  CHANNELS 3 Zrotation Xrotation Yrotation
                  End Site
                  {
                    OFFSET 1.69225 -0.51767 -0.607171
                  }
                }
              }
            }
          }
        }
      }
    }
  }
  JOINT rButtock
  {
    OFFSET -8.77824 4.35084 1.2192
    CHANNELS 3 Zrotation Xrotation Yrotation
    JOINT rThigh
    {
      OFFSET 0 -1.70687 -2.19456
      CHANNELS 3 Zrotation Xrotation Yrotation
      JOINT rShin
      {
        OFFSET 0 -36.8199 0.73152
        CHANNELS 3 Zrotation Xrotation Yrotation
        JOINT rFoot
        {
          OFFSET 0.73152 -45.1104 -5.12064
          CHANNELS 3 Zrotation Xrotation Yrotation
          End Site
          {
            OFFSET -1.1221 -3.69964 12.103
          }
        }
      }
    }
  }
  JOINT lButtock
  {
    OFFSET 8.77824 4.35084 1.2192
    CHANNELS 3 Zrotation Xrotation Yrotation
    JOINT lThigh
    {
      OFFSET 0 -1.70687 -2.19456
      CHANNELS 3 Zrotation Xrotation Yrotation
      JOINT lShin
      {
        OFFSET 0 -36.8199 0.73152
        CHANNELS 3 Zrotation Xrotation Yrotation
        JOINT lFoot
        {
          OFFSET -0.73152 -45.1104 -5.12064
          CHANNELS 3 Zrotation Xrotation Yrotation
          End Site
          {
            OFFSET 1.1221 -3.69964 12.103
          }
        }
      }
    }
  }
}
MOTION
Frames:	5
Frame Time:	0.00833333
49.4123 2.26311 63.5104 0.0 0.0 0.0 2.7222 0.00051883 0.0736095 0.750731 0.0131632 0.129911 -3.58376e-14 0.0 4.96962e-16 -1.08207e-13 3.18055e-15 1.48778e-15 -0.0 0.0 0.0 -0.0 0.0 0.0 -1.79914e-14 8.63859e-17 3.97569e-16 -3.7508e-13 1.8077e-15 4.96962e-15 -6.52123e-12 2.00713e-12 1.65389e-13 -7.45262e-11 -1.60126e-12 8.68291e-13 -1.75828e-10 8.80488e-13 2.28364e-12 -3.03661e-10 1.51712e-12 3.94786e-12 -1.75823e-10 8.82206e-13 2.27728e-12 7.73091 5.47488 0.417314 -1.75826e-10 8.81212e-13 2.28364e-12 2.90554 0.965183 0.102902 -1.75813e-10 8.81014e-13 2.28284e-12 10.2786 0.731801 0.0259123 -1.7583e-10 8.81411e-13 2.29e-12 2.22167 -0.733487 -0.20892 -1.80892e-14 8.75507e-17 9.93923e-17 -3.81322e-13 1.82633e-15 3.18055e-15 -6.5099e-12 -1.88428e-12 1.62208e-13 -7.45903e-11 2.30168e-12 8.96916e-13 -1.75929e-10 9.06285e-13 2.28046e-12 -3.03817e-10 1.56165e-12 3.94548e-12 -1.75935e-10 9.08446e-13 2.27728e-12 -7.73091 5.47488 -0.417314 -1.7593e-10 9.0606e-13 2.27728e-12 -2.90554 0.965183 -0.102902 -1.75935e-10 9.06756e-13 2.28125e-12 -10.2786 0.731801 -0.0259123 -1.75927e-10 9.0606e-13 2.2741e-12 -2.22167 -0.733487 0.20892 -2.03217e-16 0.0 -3.88251e-19 2.53849 -8.65133 -0.274876 0.00735964 10.0921 0.189187 -0.522716 -1.45171 0.029215 2.03217e-16 0.0 3.88251e-19 1.61335 -1.93183 -0.00962375 0.00855953 -2.07866 0.0702819 0.453083 3.9995 -0.131621
56.5369 -3.07347 53.1344 164.961 -54.2006 -170.297 6.22759 9.61809 -1.25295 2.52489 -1.99529 0.628487 -0.962251 3.04271 1.3427 -2.65034 -15.6708 0.893786 -0.0 0.0 0.0 -0.0 0.0 0.0 4.25905e-14 -7.07312e-14 2.08802e-14 14.2227 -2.81948 5.93081 -7.16195 -4.17597 10.0056 0.233936 -10.7681 -1.41875 -1.52529e-10 8.73146e-10 -1.03435e-09 -2.29897e-10 1.4647e-09 -1.79041e-09 -1.52524e-10 8.73148e-10 -1.03436e-09 7.73091 5.47488 0.417314 -1.52528e-10 8.73146e-10 -1.03435e-09 2.90554 0.965183 0.102902 -1.52518e-10 8.73146e-10 -1.03435e-09 10.2786 0.731801 0.0259123 -1.52533e-10 8.73147e-10 -1.03434e-09 2.22167 -0.733487 -0.20892 4.24693e-14 -7.07522e-14 2.05944e-14 -3.1848 -7.71692 -2.87535 -0.352794 16.8698 40.4053 -0.0987056 6.98035 -0.954951 -4.28097e-10 -8.93952e-10 4.87498e-10 -7.26857e-10 -1.48616e-09 8.49303e-10 -4.28102e-10 -8.93949e-10 4.87498e-10 -7.73091 5.47488 -0.417314 -4.28097e-10 -8.93952e-10 4.87496e-10 -2.90554 0.965183 -0.102902 -4.28104e-10 -8.93951e-10 4.87498e-10 -10.2786 0.731801 -0.0259123 -4.28091e-10 -8.93945e-10 4.87493e-10 -2.22167 -0.733487 0.20892 -2.03217e-16 0.0 -3.88251e-19 -13.6864 -29.8682 -8.04716 -1.92335 37.1991 1.39278 4.16112 -2.2489 6.38117 2.03217e-16 0.0 3.88251e-19 7.4004 -11.2273 -3.37085 -7.85289 34.1917 5.607 -1.95786 -13.6649 -0.0595537
56.5193 -3.15927 53.1348 164.68 -54.2312 -170.185 10.4409 19.7639 -2.78191 4.43631 -4.11469 1.15671 -2.14468 6.24695 2.77297 -4.81053 -32.2098 2.10321 -0.0 0.0 0.0 -0.0 0.0 0.0 1.0609e-13 -1.56682e-13 4.8168e-14 29.9065 -5.69745 12.2499 -13.1557 -8.15255 20.7322 -0.140023 -22.0965 -3.09093 -1.33318e-10 1.80517e-09 -2.13398e-09 -1.61166e-10 3.02875e-09 -3.69407e-09 -1.33312e-10 1.80517e-09 -2.13399e-09 7.73091 5.47488 0.417314 -1.33318e-10 1.80517e-09 -2.13399e-09 2.90554 0.965183 0.102902 -1.3331e-10 1.80517e-09 -2.13398e-09 10.2786 0.731801 0.0259123 -1.33322e-10 1.80517e-09 -2.13398e-09 2.22167 -0.733487 -0.20892 1.05943e-13 -1.56727e-13 4.78947e-14 -7.42979 -15.7935 -6.08248 -16.3101 7.79541 82.0369 0.057513 14.3709 -2.01526 -7.22544e-10 -1.96684e-09 9.93765e-10 -1.22222e-09 -3.27783e-09 1.73208e-09 -7.22547e-10 -1.96684e-09 9.9377e-10 -7.73091 5.47488 -0.417314 -7.22543e-10 -1.96684e-09 9.93764e-10 -2.90554 0.965183 -0.102902 -7.22552e-10 -1.96684e-09 9.93764e-10 -10.2786 0.731801 -0.0259123 -7.22534e-10 -1.96682e-09 9.93761e-10 -2.22167 -0.733487 0.20892 -2.03217e-16 0.0 -3.88251e-19 -40.3234 -50.596 -22.4801 -6.90328 65.7818 5.08416 9.30088 -3.04594 13.1028 2.03217e-16 0.0 3.88251e-19 12.2421 -20.9342 -7.26405 -37.5881 70.4412 29.3655 -4.45317 -32.3398 0.00955583
56.5149 -3.19047 53.1958 164.001 -54.2257 -169.748 14.7312 28.7886 -4.39763 6.17858 -6.01014 1.63348 -3.31884 9.10796 4.07387 -5.90818 -46.9554 3.78378 -0.0 0.0 0.0 -0.0 0.0 0.0 1.63755e-13 -2.12366e-13 6.18453e-14 44.4027 -8.09534 17.9557 -17.2666 -11.0006 30.556 -1.14334 -32.2177 -4.944 -1.05932e-10 2.61768e-09 -3.10762e-09 -8.23688e-11 4.39107e-09 -5.37911e-09 -1.05926e-10 2.61768e-09 -3.10763e-09 7.73091 5.47488 0.417314 -1.05932e-10 2.61768e-09 -3.10762e-09 2.90554 0.965183 0.102902 -1.05926e-10 2.61768e-09 -3.10761e-09 10.2786 0.731801 0.0259123 -1.05937e-10 2.61768e-09 -3.10761e-09 2.22167 -0.733487 -0.20892 1.63586e-13 -2.12432e-13 6.15844e-14 -12.0367 -22.9074 -9.28591 -22.354 -22.5603 101.097 0.443483 20.9169 -3.04442 -9.32433e-10 -2.68367e-09 1.45793e-09 -1.57294e-09 -4.4616e-09 2.54002e-09 -9.32436e-10 -2.68366e-09 1.45794e-09 -7.73091 5.47488 -0.417314 -9.32431e-10 -2.68367e-09 1.45793e-09 -2.90554 0.965183 -0.102902 -9.32442e-10 -2.68367e-09 1.45793e-09 -10.2786 0.731801 -0.0259123 -9.32419e-10 -2.68365e-09 1.45793e-09 -2.22167 -0.733487 0.20892 -2.03217e-16 0.0 -3.88251e-19 -82.9156 -63.7223 -51.849 -119.274 86.7137 115.912 14.0471 -3.67178 19.111 2.03217e-16 0.0 3.88251e-19 15.3047 -29.3863 -11.3796 -156.403 68.165 140.224 -6.61681 -48.9936 0.135637
56.542 -3.15229 53.2381 163.824 -54.2938 -169.658 18.1175 35.0716 -5.77065 7.42402 -7.34761 1.97435 -4.16838 11.1299 5.00843 -5.85529 -57.2676 5.72596 -0.0 0.0 0.0 -0.0 0.0 0.0 2.06831e-13 -1.92388e-13 4.14963e-14 54.7138 -9.63918 21.9728 -19.557 -12.4646 37.6149 -2.37586 -39.3999 -6.62908 -5.81087e-11 3.13139e-09 -3.76624e-09 2.15976e-11 5.24907e-09 -6.5176e-09 -5.81028e-11 3.1314e-09 -3.76625e-09 7.73091 5.47488 0.417314 -5.81096e-11 3.13139e-09 -3.76625e-09 2.90554 0.965183 0.102902 -5.81048e-11 3.13139e-09 -3.76624e-09 10.2786 0.731801 0.0259123 -5.81141e-11 3.13139e-09 -3.76623e-09 2.22167 -0.733487 -0.20892 2.06655e-13 -1.92461e-13 4.12478e-14 -15.7672 -27.84 -11.8663 -24.2887 -49.0164 102.358 0.860781 25.3751 -3.82211 -9.30928e-10 -2.51035e-09 1.81685e-09 -1.56202e-09 -4.12565e-09 3.16085e-09 -9.3093e-10 -2.51035e-09 1.81686e-09 -7.73091 5.47488 -0.417314 -9.30926e-10 -2.51035e-09 1.81685e-09 -2.90554 0.965183 -0.102902 -9.30937e-10 -2.51035e-09 1.81685e-09 -10.2786 0.731801 -0.0259123 -9.30912e-10 -2.51033e-09 1.81685e-09 -2.22167 -0.733487 0.20892 -2.03217e-16 0.0 -3.88251e-19 -125.491 -65.016 -83.9059 -173.978 70.395 169.294 17.4435 -4.02172 23.3139 2.03217e-16 0.0 3.88251e-19 16.6171 -35.0984 -14.8701 -178.836 46.2081 155.247 -7.97809 -60.5945 0.42237
